<svg xmlns="http://www.w3.org/2000/svg" version="1.1" xmlns:xlink="http://www.w3.org/1999/xlink" xmlns:svgjs="http://svgjs.dev/svgjs" width="1500" height="1500" viewBox="0 0 1500 1500"><rect width="1500" height="1500" fill="#ffffff"></rect><g transform="matrix(0.6666666666666666,0,0,0.6666666666666666,250.08793005855898,663.1928752873562)"><svg viewBox="0 0 335 58" data-background-color="#ffffff" preserveAspectRatio="xMidYMid meet" height="259" width="1500" xmlns="http://www.w3.org/2000/svg" xmlns:xlink="http://www.w3.org/1999/xlink"><g id="tight-bounds" transform="matrix(1,0,0,1,-0.029456569617252626,0.159150000000011)"><svg viewBox="0 0 335.0589131392345 57.68169999999999" height="57.68169999999999" width="335.0589131392345"><g><svg viewBox="0 0 335.0589131392345 57.68169999999999" height="57.68169999999999" width="335.0589131392345"><g><svg viewBox="0 0 335.0589131392345 57.68169999999999" height="57.68169999999999" width="335.0589131392345"><g><svg viewBox="0 0 335.0589131392345 57.68169999999999" height="57.68169999999999" width="335.0589131392345"><g id="textblocktransform"><svg viewBox="0 0 335.0589131392345 57.68169999999999" height="57.68169999999999" width="335.0589131392345" id="textblock"><g><svg viewBox="0 0 335.0589131392345 57.68169999999999" height="57.68169999999999" width="335.0589131392345"><g><svg><g></g><g></g></svg></g><g><svg><g><svg></svg></g><g></g></svg></g><g id="text-0"><svg viewBox="0 0 335.0589131392345 57.68169999999999" height="57.68169999999999" width="335.0589131392345"><g transform="matrix(1,0,0,1,0,10.465849999999996)"><svg width="105.30000000000003" viewBox="1.2 -35 105.28999999999999 35.55" height="35.55" data-palette-color="#30017e"><path d="M12.3-34.5L16.7-34.5 16.7 0 12.3 0 12.3-34.5ZM1.2-34.5L27.85-34.5 27.85-30.6 1.2-30.6 1.2-34.5ZM44.45-24.95L44.45-24.95Q47.15-24.95 49.02-24.23 50.9-23.5 51.85-21.8 52.8-20.1 52.8-17.15L52.8-17.15 52.8 0 49.45 0 48.8-5.3 48.5-5.85 48.5-17.15Q48.5-19.4 47.47-20.38 46.45-21.35 43.55-21.35L43.55-21.35Q41.65-21.35 38.77-21.15 35.9-20.95 33.1-20.7L33.1-20.7 32.7-23.85Q34.4-24.15 36.42-24.4 38.45-24.65 40.55-24.8 42.65-24.95 44.45-24.95ZM38.35-15L50.8-15 50.75-11.8 39.1-11.75Q37.35-11.7 36.65-10.83 35.95-9.95 35.95-8.4L35.95-8.4 35.95-6.85Q35.95-4.95 36.85-4.08 37.75-3.2 39.75-3.2L39.75-3.2Q41.15-3.2 42.92-3.73 44.7-4.25 46.5-5.35 48.3-6.45 49.8-8.15L49.8-8.15 49.8-5Q49.25-4.3 48.22-3.38 47.2-2.45 45.77-1.58 44.35-0.7 42.62-0.13 40.9 0.45 38.9 0.45L38.9 0.45Q36.75 0.45 35.1-0.33 33.45-1.1 32.52-2.63 31.6-4.15 31.6-6.35L31.6-6.35 31.6-9Q31.6-11.85 33.37-13.43 35.15-15 38.35-15L38.35-15ZM68.5-24.95L68.5-24.95Q70.09-24.95 71.9-24.85 73.7-24.75 75.47-24.6 77.25-24.45 78.75-24.2L78.75-24.2 78.4-21.1Q76.09-21.2 73.77-21.28 71.45-21.35 69.15-21.35L69.15-21.35Q66.9-21.4 65.59-21.25 64.3-21.1 63.72-20.45 63.15-19.8 63.15-18.25L63.15-18.25Q63.15-16.35 64.05-15.75 64.95-15.15 66.7-14.75L66.7-14.75 73.8-13.15Q76.7-12.45 78.07-11 79.45-9.55 79.45-6.45L79.45-6.45Q79.45-3.45 78.32-1.95 77.2-0.45 74.9 0.05 72.59 0.55 69.05 0.55L69.05 0.55Q67.75 0.55 65.17 0.45 62.6 0.35 59.5-0.15L59.5-0.15 59.8-3.25Q61-3.2 62.35-3.13 63.7-3.05 65.17-3.05 66.65-3.05 68.2-3.05L68.2-3.05Q70.95-3.05 72.5-3.3 74.05-3.55 74.7-4.28 75.34-5 75.34-6.45L75.34-6.45Q75.34-8.25 74.3-8.85 73.25-9.45 71.5-9.85L71.5-9.85 64.5-11.45Q62.5-11.95 61.3-12.78 60.1-13.6 59.55-14.93 59-16.25 59-18.25L59-18.25Q59-21.1 60-22.55 61-24 63.1-24.5 65.2-25 68.5-24.95ZM100.74-24.35L105.69-24.35 98.04-15.4Q97.69-14.95 97.19-14.48 96.69-14 96.34-13.75L96.34-13.75 96.34-13.65Q96.69-13.4 97.19-12.83 97.69-12.25 98.04-11.7L98.04-11.7 106.49 0 101.54 0 91.89-13.95 100.74-24.35ZM85.79-35L90.04-35 90.09-19.45Q90.09-17.9 89.97-16.57 89.84-15.25 89.59-13.8L89.59-13.8Q89.84-12.4 89.94-11 90.04-9.6 90.04-8.3L90.04-8.3 90.04 0 85.79 0 85.79-35ZM88.54-15.3L94.19-15.3 94.19-12.2 88.54-12.2 88.54-15.3Z" opacity="1" transform="matrix(1,0,0,1,0,0)" fill="#30017e" class="undefined-yy-0" data-fill-palette-color="primary"></path></svg></g><g><svg xmlns="http://www.w3.org/2000/svg" xmlns:xlink="http://www.w3.org/1999/xlink" version="1.1" x="118.91830000000003" y="0" viewBox="11.017823632605118 11.459999999999999 37.963698158539415 37.07000000000001" style="enable-background:new 0 0 60 60;" xml:space="preserve" height="57.68169999999999" width="59.07231313923449" class="icon-cg-0" data-fill-palette-color="accent" id="cg-0"><path d="M48.85 34.1L35.82 11.92c-0.17-0.29-0.47-0.46-0.81-0.46s-0.64 0.18-0.81 0.46L30 19.08l-4.21-7.15c-0.17-0.29-0.47-0.46-0.81-0.46s-0.64 0.18-0.81 0.46L11.15 34.1c-0.22 0.37-0.16 0.83 0.14 1.13l13.03 13.03c0.18 0.18 0.42 0.27 0.66 0.27s0.48-0.09 0.66-0.27L30 43.91l4.35 4.35c0.18 0.18 0.42 0.27 0.66 0.27s0.48-0.09 0.66-0.27l13.03-13.03C49.01 34.93 49.07 34.46 48.85 34.1zM24.99 46.28L13.13 34.42l11.86-20.18 3.93 6.68L21.17 34.1c-0.22 0.37-0.16 0.83 0.14 1.13l7.36 7.36L24.99 46.28zM30 22.77l6.85 11.65L30 41.27l-6.85-6.85L30 22.77zM35.01 46.28l-3.69-3.69 7.36-7.36c0.3-0.3 0.36-0.77 0.14-1.13l-7.74-13.17 3.93-6.68 11.86 20.18L35.01 46.28z" fill="#fb806f" data-fill-palette-color="accent"></path></svg></g><g transform="matrix(1,0,0,1,191.60891313923452,11.265849999999997)"><svg width="143.45" viewBox="1.2 -34.5 143.44 35.15" height="35.15" data-palette-color="#96a2fb"><path d="M12.3-34.5L16.7-34.5 16.7 0 12.3 0 12.3-34.5ZM1.2-34.5L27.85-34.5 27.85-30.6 1.2-30.6 1.2-34.5ZM43.25-24.95L43.25-24.95Q47.45-24.95 49.97-23.7 52.5-22.45 53.6-19.63 54.7-16.8 54.7-12.15L54.7-12.15Q54.7-7.5 53.6-4.67 52.5-1.85 49.97-0.6 47.45 0.65 43.25 0.65L43.25 0.65Q39.1 0.65 36.57-0.6 34.05-1.85 32.92-4.67 31.8-7.5 31.8-12.15L31.8-12.15Q31.8-16.8 32.92-19.63 34.05-22.45 36.57-23.7 39.1-24.95 43.25-24.95ZM43.25-21.35L43.25-21.35Q40.6-21.35 39.07-20.53 37.55-19.7 36.9-17.7 36.25-15.7 36.25-12.15L36.25-12.15Q36.25-8.6 36.9-6.6 37.55-4.6 39.07-3.78 40.6-2.95 43.25-2.95L43.25-2.95Q45.9-2.95 47.45-3.78 49-4.6 49.65-6.6 50.3-8.6 50.3-12.15L50.3-12.15Q50.3-15.7 49.65-17.7 49-19.7 47.45-20.53 45.9-21.35 43.25-21.35ZM93-24.35L97.4-24.35 90.3-1.2Q90.15-0.65 89.7-0.33 89.25 0 88.65 0L88.65 0 84.8 0Q84.2 0 83.72-0.38 83.25-0.75 83.15-1.35L83.15-1.35 79.15-17.9Q78.95-18.85 78.77-19.8 78.6-20.75 78.35-21.75L78.35-21.75 77.75-21.75Q77.55-20.75 77.32-19.8 77.1-18.85 76.9-17.9L76.9-17.9 72.95-1.35Q72.8-0.75 72.35-0.38 71.9 0 71.25 0L71.25 0 67.45 0Q66.85 0 66.4-0.33 65.95-0.65 65.8-1.2L65.8-1.2 58.7-24.35 63.1-24.35 68.15-6.4Q68.4-5.5 68.6-4.58 68.8-3.65 68.95-2.75L68.95-2.75 69.6-2.75Q69.85-3.65 70.07-4.58 70.3-5.5 70.5-6.4L70.5-6.4 74.55-23Q74.65-23.6 75.07-23.98 75.5-24.35 76.15-24.35L76.15-24.35 80-24.35Q80.6-24.35 81.02-23.98 81.45-23.6 81.6-22.95L81.6-22.95 85.6-6.4Q85.8-5.5 86.02-4.6 86.25-3.7 86.45-2.75L86.45-2.75 87.1-2.75Q87.35-3.7 87.5-4.58 87.65-5.45 87.95-6.4L87.95-6.4 93-24.35ZM112.54-24.95L112.54-24.95Q118.04-24.95 120.52-22.95 122.99-20.95 122.99-17L122.99-17Q123.04-13.75 121.64-11.93 120.24-10.1 117.19-10.1L117.19-10.1 102.99-10.1 102.99-13.4 116.09-13.4Q117.74-13.4 118.24-14.53 118.74-15.65 118.74-17L118.74-17Q118.69-19.35 117.34-20.35 115.99-21.35 112.74-21.35L112.74-21.35Q110.09-21.35 108.57-20.58 107.04-19.8 106.42-17.88 105.79-15.95 105.79-12.5L105.79-12.5Q105.79-8.6 106.57-6.55 107.34-4.5 109.04-3.75 110.74-3 113.54-3L113.54-3Q115.49-3 117.82-3.18 120.14-3.35 121.99-3.6L121.99-3.6 122.44-0.75Q121.29-0.3 119.62 0 117.94 0.3 116.17 0.45 114.39 0.6 112.99 0.6L112.99 0.6Q108.79 0.6 106.24-0.68 103.69-1.95 102.52-4.78 101.34-7.6 101.34-12.25L101.34-12.25Q101.34-17.05 102.52-19.83 103.69-22.6 106.17-23.78 108.64-24.95 112.54-24.95ZM129.39-24.35L132.69-24.35 133.24-19.7 133.64-18.95 133.64 0 129.39 0 129.39-24.35ZM143.54-24.95L144.64-24.95 144.14-20.95 142.74-20.95Q140.59-20.95 138.44-20.08 136.29-19.2 133.19-17.6L133.19-17.6 132.84-20.25Q135.54-22.45 138.27-23.7 140.99-24.95 143.54-24.95L143.54-24.95Z" opacity="1" transform="matrix(1,0,0,1,0,0)" fill="#96a2fb" class="undefined-yy-1" data-fill-palette-color="secondary"></path></svg></g></svg></g></svg></g></svg></g></svg></g><g></g></svg></g></svg></g><defs></defs></svg><rect width="335.0589131392345" height="57.68169999999999" fill="none" stroke="none" visibility="hidden"></rect></g></svg></g></svg>